ffmpeg started on 2016-11-26 at 11:28:49
Report written to "Output/NVENCh264/results/ffmpeg/old_town_cross_2160p50ll3000k.log"
Command line:
Tools/ffmpeg/ffmpeg -benchmark -y -i Input/y4m/old_town_cross_2160p50.y4m -c:v h264_nvenc -preset ll -b:v 3000k -an Output/NVENCh264/encoded/old_town_cross_2160p50ll3000k.mkv
ffmpeg version N-82227-gdb23fde Copyright (c) 2000-2016 the FFmpeg developers
  built with gcc 5.4.0 (Ubuntu 5.4.0-6ubuntu1~16.04.2) 20160609
  configuration: --prefix=/home/jaroslav/ffmpeg_build --pkg-config-flags=--static --extra-cflags=-I/home/jaroslav/ffmpeg_build/include --extra-ldflags=-L/home/jaroslav/ffmpeg_build/lib --bindir=/home/jaroslav/bin --enable-gpl --enable-libass --enable-libfdk-aac --enable-libfreetype --enable-libmp3lame --enable-libopus --enable-libtheora --enable-libvorbis --enable-libvpx --enable-libx264 --enable-libx265 --enable-nvenc --enable-libmfx --enable-libxvid --enable-libgsm --enable-libopencore-amrnb --enable-version3 --enable-nonfree
  libavutil      55. 35.100 / 55. 35.100
  libavcodec     57. 66.101 / 57. 66.101
  libavformat    57. 57.100 / 57. 57.100
  libavdevice    57.  2.100 / 57.  2.100
  libavfilter     6. 66.100 /  6. 66.100
  libswscale      4.  3.100 /  4.  3.100
  libswresample   2.  4.100 /  2.  4.100
  libpostproc    54.  2.100 / 54.  2.100
Input #0, yuv4mpegpipe, from 'Input/y4m/old_town_cross_2160p50.y4m':
  Duration: 00:00:10.00, start: 0.000000, bitrate: 4976642 kb/s
    Stream #0:0: Video: rawvideo (I420 / 0x30323449), yuv420p(progressive), 3840x2160, SAR 1:1 DAR 16:9, 50 fps, 50 tbr, 50 tbn, 50 tbc
[h264_nvenc @ 0x2919120] The variable bitrate rate-control requires the 'qmin' and/or 'qmax' option set.
Output #0, matroska, to 'Output/NVENCh264/encoded/old_town_cross_2160p50ll3000k.mkv':
  Metadata:
    encoder         : Lavf57.57.100
    Stream #0:0: Video: h264 (h264_nvenc) (Main) (H264 / 0x34363248), yuv420p, 3840x2160 [SAR 1:1 DAR 16:9], q=-1--1, 3000 kb/s, 50 fps, 1k tbn, 50 tbc
    Metadata:
      encoder         : Lavc57.66.101 h264_nvenc
    Side data:
      cpb: bitrate max/min/avg: 0/0/3000000 buffer size: 6000000 vbv_delay: -1
Stream mapping:
  Stream #0:0 -> #0:0 (rawvideo (native) -> h264 (h264_nvenc))
Press [q] to stop, [?] for help
frame=   13 fps=0.0 q=0.0 size=       0kB time=00:00:00.00 bitrate=N/A speed=   0x    frame=   31 fps= 27 q=43.0 size=       1kB time=00:00:00.00 bitrate=5976.0kbits/s speed=0.000868x    frame=   37 fps= 22 q=47.0 size=       1kB time=00:00:00.12 bitrate=  49.4kbits/s speed=0.073x    frame=   55 fps= 25 q=49.0 size=       1kB time=00:00:00.48 bitrate=  12.4kbits/s speed=0.22x    frame=   71 fps= 24 q=49.0 size=       1kB time=00:00:00.80 bitrate=   7.5kbits/s speed=0.268x    frame=   89 fps= 25 q=40.0 size=       1kB time=00:00:01.16 bitrate=   5.1kbits/s speed=0.332x    frame=  107 fps= 27 q=39.0 size=       1kB time=00:00:01.52 bitrate=   3.9kbits/s speed=0.379x    frame=  125 fps= 28 q=44.0 size=       1kB time=00:00:01.88 bitrate=   3.2kbits/s speed=0.415x    frame=  143 fps= 28 q=44.0 size=       1kB time=00:00:02.24 bitrate=   2.7kbits/s speed=0.445x    frame=  161 fps= 29 q=44.0 size=       1kB time=00:00:02.60 bitrate=   2.3kbits/s speed=0.468x    frame=  179 fps= 30 q=37.0 size=       1kB time=00:00:02.96 bitrate=   2.0kbits/s speed=0.488x    frame=  197 fps= 30 q=39.0 size=       1kB time=00:00:03.32 bitrate=   1.8kbits/s speed=0.505x    frame=  215 fps= 30 q=39.0 size=       1kB time=00:00:03.68 bitrate=   1.6kbits/s speed=0.519x    frame=  233 fps= 31 q=43.0 size=       1kB time=00:00:04.04 bitrate=   1.5kbits/s speed=0.532x    frame=  251 fps= 31 q=37.0 size=       1kB time=00:00:04.40 bitrate=   1.4kbits/s speed=0.542x    frame=  269 fps= 31 q=39.0 size=       1kB time=00:00:04.76 bitrate=   1.3kbits/s speed=0.552x    frame=  287 fps= 31 q=44.0 size=    1761kB time=00:00:05.12 bitrate=2816.7kbits/s speed=0.56x    frame=  305 fps= 32 q=49.0 size=    1761kB time=00:00:05.48 bitrate=2631.7kbits/s speed=0.567x    frame=  323 fps= 32 q=46.0 size=    1761kB time=00:00:05.84 bitrate=2469.5kbits/s speed=0.574x    frame=  341 fps= 32 q=36.0 size=    1761kB time=00:00:06.20 bitrate=2326.1kbits/s speed=0.58x    frame=  352 fps= 31 q=45.0 size=    1761kB time=00:00:06.42 bitrate=2246.4kbits/s speed=0.566x    frame=  356 fps= 29 q=45.0 size=    1761kB time=00:00:06.50 bitrate=2218.8kbits/s speed=0.535x    frame=  358 fps= 28 q=40.0 size=    1761kB time=00:00:06.54 bitrate=2205.2kbits/s speed=0.51x    frame=  359 fps= 27 q=40.0 size=    1761kB time=00:00:06.56 bitrate=2198.5kbits/s speed=0.487x    frame=  362 fps= 26 q=44.0 size=    1761kB time=00:00:06.62 bitrate=2178.6kbits/s speed=0.468x    frame=  364 fps= 25 q=40.0 size=    1761kB time=00:00:06.66 bitrate=2165.5kbits/s speed=0.45x    frame=  366 fps= 23 q=40.0 size=    1761kB time=00:00:06.70 bitrate=2152.6kbits/s speed=0.429x    frame=  367 fps= 23 q=38.0 size=    1761kB time=00:00:06.72 bitrate=2146.2kbits/s speed=0.417x    frame=  369 fps= 22 q=44.0 size=    1761kB time=00:00:06.76 bitrate=2133.5kbits/s speed=0.396x    frame=  370 fps= 21 q=40.0 size=    1761kB time=00:00:06.78 bitrate=2127.2kbits/s speed=0.38x    frame=  371 fps= 20 q=41.0 size=    1761kB time=00:00:06.80 bitrate=2120.9kbits/s speed=0.37x    frame=  374 fps= 20 q=44.0 size=    1761kB time=00:00:06.86 bitrate=2102.4kbits/s speed=0.363x    frame=  375 fps= 19 q=42.0 size=    1761kB time=00:00:06.88 bitrate=2096.3kbits/s speed=0.351x    frame=  376 fps= 18 q=40.0 size=    1761kB time=00:00:06.90 bitrate=2090.2kbits/s speed=0.34x    frame=  382 fps= 18 q=39.0 size=    1761kB time=00:00:07.02 bitrate=2054.5kbits/s speed=0.337x    frame=  384 fps= 18 q=39.0 size=    1761kB time=00:00:07.06 bitrate=2042.8kbits/s speed=0.327x    frame=  387 fps= 17 q=44.0 size=    1761kB time=00:00:07.12 bitrate=2025.6kbits/s speed=0.319x    frame=  395 fps= 17 q=41.0 size=    1761kB time=00:00:07.28 bitrate=1981.1kbits/s speed=0.319x    frame=  413 fps= 18 q=44.0 size=    1761kB time=00:00:07.64 bitrate=1887.8kbits/s speed=0.328x    frame=  431 fps= 18 q=44.0 size=    1761kB time=00:00:08.00 bitrate=1802.8kbits/s speed=0.336x    frame=  449 fps= 18 q=39.0 size=    1761kB time=00:00:08.36 bitrate=1725.2kbits/s speed=0.343x    frame=  467 fps= 19 q=44.0 size=    1761kB time=00:00:08.72 bitrate=1654.0kbits/s speed=0.351x    frame=  485 fps= 19 q=44.0 size=    1761kB time=00:00:09.08 bitrate=1588.4kbits/s speed=0.358x    frame=  493 fps= 19 q=41.0 size=    1761kB time=00:00:09.24 bitrate=1560.9kbits/s speed=0.356x    frame=  498 fps= 19 q=40.0 size=    1761kB time=00:00:09.34 bitrate=1544.2kbits/s speed=0.353x    frame=  500 fps= 19 q=44.0 Lsize=    3596kB time=00:00:09.98 bitrate=2951.8kbits/s speed=0.37x    
video:3592kB audio:0kB subtitle:0kB other streams:0kB global headers:0kB muxing overhead: 0.121252%
bench: utime=1.112s
bench: maxrss=1421184kB
